<?xml version="1.0" encoding="UTF-8"?>
<svg version="1.1" xmlns="http://www.w3.org/2000/svg" width="712" height="255">
<path d="M0 0 C234.96 0 469.92 0 712 0 C712 84.15 712 168.3 712 255 C477.04 255 242.08 255 0 255 C0 170.85 0 86.7 0 0 Z " fill="#FEFEFE" transform="translate(0,0)"/>
<path d="M0 0 C6.75002005 5.04864514 9.67354502 9.55257621 11 18 C11.189812 20.9384217 11.23055205 23.86856725 11.25 26.8125 C11.270625 27.58142578 11.29125 28.35035156 11.3125 29.14257812 C11.36675045 37.17842553 8.96406977 43.57590971 4 50 C2.36345179 51.37013339 0.70196405 52.7120272 -1 54 C-1.33 54.66 -1.66 55.32 -2 56 C-3.32 56.66 -4.64 57.32 -6 58 C-2.7 58 0.6 58 4 58 C4 57.34 4 56.68 4 56 C5.98 56 7.96 56 10 56 C10 56.66 10 57.32 10 58 C10.5775 58.04125 11.155 58.0825 11.75 58.125 C15.24042115 59.482386 16.23845723 61.78062874 18 65 C22.25304845 79.88566958 17.02054455 93.34450398 10.02392578 106.21777344 C8.32931211 109.16738712 6.37574471 111.84014495 4.234375 114.4765625 C2.58259996 116.51514562 1.33132664 118.74253309 0 121 C-0.83940541 122.28063133 -1.69459456 123.55100953 -2.5625 124.8125 C-3.18318359 125.71935547 -3.18318359 125.71935547 -3.81640625 126.64453125 C-4.20699219 127.09183594 -4.59757812 127.53914063 -5 128 C-5.66 128 -6.32 128 -7 128 C-7.10546143 127.28682617 -7.21092285 126.57365234 -7.31958008 125.83886719 C-8.54429254 117.55893379 -9.77154595 109.27937904 -11 101 C-11.12777832 100.13761719 -11.25555664 99.27523437 -11.38720703 98.38671875 C-12.08467055 93.68416998 -12.79109525 88.98303562 -13.50341797 84.28271484 C-13.88663869 81.74938848 -14.26828954 79.21584382 -14.64892578 76.68212891 C-15.40685231 71.64150029 -16.1702883 66.6017235 -16.9375 61.5625 C-17.06761475 60.70749908 -17.19772949 59.85249817 -17.33178711 58.97158813 C-18.96559864 48.27451428 -20.66541574 37.60715832 -22.88256836 27.01196289 C-23.72098386 22.93727259 -24.1709438 19.16182396 -24 15 C-22 17 -22 17 -21.5 19.0625 C-21.335 19.701875 -21.17 20.34125 -21 21 C-20.34 21.33 -19.68 21.66 -19 22 C-19.11859375 21.40832031 -19.2371875 20.81664063 -19.359375 20.20703125 C-20.41945584 13.70873572 -20.41945584 13.70873572 -18.1875 9.9375 C-16 8 -16 8 -14 8 C-14 7.34 -14 6.68 -14 6 C-13.01 6 -12.02 6 -11 6 C-11 5.34 -11 4.68 -11 4 C-9.68 4 -8.36 4 -7 4 C-7 3.34 -7 2.68 -7 2 C-4.69 2 -2.38 2 0 2 C0 1.34 0 0.68 0 0 Z " fill="#FDFDFD" transform="translate(356,40)"/>
<path d="M0 0 C0.66 0.33 1.32 0.66 2 1 C2.03963867 1.97831787 2.07927734 2.95663574 2.12011719 3.96459961 C2.85957594 21.72115814 3.78185847 39.41441272 5.9375 57.0625 C6.01681763 57.72893524 6.09613525 58.39537048 6.17785645 59.08200073 C7.10865608 66.79966149 8.4479071 74.27494563 10.27954102 81.8269043 C11.48376918 87.13064998 12.22742135 92.49444048 13 97.875 C14.40525482 107.32273944 16.00494594 116.65756942 18 126 C18.57046834 128.70673263 19.13068497 131.41543057 19.6875 134.125 C19.93886719 135.32382813 20.19023438 136.52265625 20.44921875 137.7578125 C20.9309705 140.59365615 21.11353063 143.13470325 21 146 C21.66 146 22.32 146 23 146 C23.11102051 145.29327148 23.22204102 144.58654297 23.33642578 143.85839844 C24.61509146 135.93350986 26.17626973 128.09469215 27.875 120.25 C28.13966064 119.02297363 28.40432129 117.79594727 28.67700195 116.53173828 C30.61044172 107.63826786 32.64291954 98.79127305 35 90 C35.26554687 88.97390625 35.53109375 87.9478125 35.8046875 86.890625 C36.17980469 85.52164063 36.17980469 85.52164063 36.5625 84.125 C36.77003906 83.36445312 36.97757813 82.60390625 37.19140625 81.8203125 C38 80 38 80 41 78 C45.94473067 83.88658413 47.44055252 90.5628206 49.1796875 97.8671875 C50.21635211 101.82625899 51.58005081 105.6078443 53.03515625 109.4296875 C53.69796272 111.19538248 54.32384675 112.97524284 54.91821289 114.76513672 C55.9904011 117.97129645 57.12366455 121.14903366 58.2734375 124.328125 C60.92098797 131.72106491 63.435582 139.15420215 65.91210938 146.60595703 C66.62925681 148.7628025 67.34964266 150.91854801 68.0703125 153.07421875 C70.26743147 159.66411211 72.4407458 166.25021166 74.32519531 172.93823242 C75.54399767 176.66210578 77.2136829 181.2136829 80 184 C80.18062988 183.32759277 80.36125977 182.65518555 80.54736328 181.96240234 C82.37246595 175.17043782 84.20168002 168.37959137 86.03320312 161.58935547 C86.94692102 158.19706242 87.8565578 154.80369791 88.765625 151.41015625 C89.30190249 149.41922211 89.83835193 147.42833428 90.375 145.4375 C90.62523926 144.49890137 90.87547852 143.56030273 91.13330078 142.59326172 C91.3651709 141.73619629 91.59704102 140.87913086 91.8359375 139.99609375 C92.03751465 139.24513428 92.2390918 138.4941748 92.44677734 137.72045898 C93 136 93 136 94 135 C94.33034036 133.69465279 94.61034433 132.37646195 94.8671875 131.0546875 C95.11021606 129.82032959 95.11021606 129.82032959 95.3581543 128.56103516 C95.61399292 127.23144775 95.61399292 127.23144775 95.875 125.875 C96.23300628 124.04686195 96.59107984 122.21873707 96.94921875 120.390625 C97.12630371 119.47990234 97.30338867 118.56917969 97.48583984 117.63085938 C98.20346061 113.95893088 98.94541574 110.29204662 99.6875 106.625 C103.90710474 85.73913521 105.48120255 62.29594624 100.65625 41.41015625 C99.97320434 37.86075828 99.88948847 34.60543859 100 31 C101.65 30.67 103.3 30.34 105 30 C105.13051758 30.58265625 105.26103516 31.1653125 105.39550781 31.765625 C108.52684006 45.75979289 108.52684006 45.75979289 111.9375 59.6875 C112.62993024 62.45722095 113.3174132 65.22786177 114 68 C114.22300781 68.89589844 114.44601563 69.79179688 114.67578125 70.71484375 C119.65154315 90.96379993 122.46678028 111.33130729 125 132 C125.16081055 131.351521 125.32162109 130.70304199 125.48730469 130.03491211 C127.05912544 123.70334454 128.64219449 117.37469564 130.23486328 111.04833984 C130.8905568 108.43602674 131.53798156 105.82184578 132.18359375 103.20703125 C132.51748893 101.88783325 132.85205768 100.56880544 133.1875 99.25 C133.46980469 98.12078125 133.75210938 96.9915625 134.04296875 95.828125 C134.99045144 93.02821696 136.08254668 91.22532611 138 89 C141 90 141 90 142.02734375 91.6875 C144.4948792 97.95694628 146.10465678 104.26840095 147.56787109 110.828125 C148.38572073 114.47736524 149.24902071 117.99054751 150.5625 121.5 C153.02947791 128.37518433 153.86748112 135.80925075 155 143 C155.19207031 144.19496094 155.38414062 145.38992187 155.58203125 146.62109375 C155.9920693 149.9358873 156.09999897 153.10009158 156.0625 156.4375 C156.05347656 157.48808594 156.04445312 158.53867188 156.03515625 159.62109375 C156.01775391 160.79865234 156.01775391 160.79865234 156 162 C155.01 161.67 154.02 161.34 153 161 C152.93006836 160.32122803 152.86013672 159.64245605 152.78808594 158.94311523 C151.00232673 141.66076011 151.00232673 141.66076011 147.109375 124.76953125 C145.45783468 119.15778332 144.12191658 113.47157948 142.75048828 107.78588867 C141.75091036 103.7182632 140.70932034 99.84205032 139 96 C135.94042292 104.47637549 133.94185514 113.18115609 131.875 121.9375 C131.33657728 124.21076018 130.7969719 126.48371713 130.25442505 128.7559967 C129.91910755 130.16102396 129.58622735 131.56663568 129.256073 132.97288513 C128.11212197 137.77575606 128.11212197 137.77575606 127 140 C126.6087065 142.54197964 126.25520881 145.07391589 125.9375 147.625 C125.80118164 148.68460937 125.80118164 148.68460937 125.66210938 149.765625 C125.43816881 151.5100041 125.21866182 153.25495134 125 155 C124.01 154.67 123.02 154.34 122 154 C121.93530518 153.00597168 121.87061035 152.01194336 121.80395508 150.98779297 C119.76764589 120.30493882 115.73525015 90.84340424 108 61 C107.96036133 61.88445801 107.92072266 62.76891602 107.87988281 63.68017578 C107.04772575 81.40604082 105.85084071 98.62872024 102 116 C101.60129311 117.87754698 101.20286205 119.75515255 100.8046875 121.6328125 C98.50376073 132.27049651 95.76987873 142.71279546 92.57763672 153.11523438 C89.55087449 162.99122948 87.00331806 172.92409089 84.66210938 182.98144531 C84.46037109 183.84737305 84.25863281 184.71330078 84.05078125 185.60546875 C83.87200439 186.38043701 83.69322754 187.15540527 83.5090332 187.95385742 C83.0851871 189.65757644 82.55518502 191.33444495 82 193 C81.01 193 80.02 193 79 193 C72.37473242 180.52572235 68.18554532 167.63109551 64.17578125 154.11328125 C62.35582083 148.01373804 60.28829607 142.05269277 58.09472656 136.078125 C57.10679536 133.30028455 56.23875425 130.5238594 55.4375 127.6875 C54.52909727 124.54381416 53.44780375 121.65140569 52.0625 118.6875 C49.85363049 113.93970001 48.39669162 109.0349614 46.9296875 104.015625 C46.05834683 101.02355587 46.05834683 101.02355587 44.890625 98.31640625 C43.78844997 95.44978435 43.85842126 93.04394283 44 90 C43.34 90 42.68 90 42 90 C41.67 88.68 41.34 87.36 41 86 C40.75765625 86.90878906 40.5153125 87.81757812 40.265625 88.75390625 C39.93046875 90.01074219 39.5953125 91.26757812 39.25 92.5625 C39.06808105 93.24868408 38.88616211 93.93486816 38.69873047 94.6418457 C37.83775034 97.88482134 36.96555501 101.12212315 36.0546875 104.3515625 C33.3399573 114.09265321 31.24532075 123.93888469 29.19384766 133.83862305 C27.70385879 140.97070975 26.01389253 147.99716663 24 155 C22.68 154.67 21.36 154.34 20 154 C17.01328066 143.05399136 14.88304691 132.07242991 13.00390625 120.88671875 C12.06065991 115.28348512 11.01621946 109.70353533 9.9375 104.125 C7.384108 90.84414197 4.98621264 77.60461464 3.28564453 64.18310547 C2.95584645 61.66254608 2.6021336 59.14589179 2.24609375 56.62890625 C0.19252011 42.08970436 -1.07463417 27.94892121 -1.125 13.25 C-1.12975342 12.06889648 -1.13450684 10.88779297 -1.1394043 9.67089844 C-1.137229 8.5677832 -1.13505371 7.46466797 -1.1328125 6.328125 C-1.13168457 5.3268457 -1.13055664 4.32556641 -1.12939453 3.29394531 C-1 1 -1 1 0 0 Z " fill="#0B0B0B" transform="translate(45,37)"/>
<path d="M0 0 C0.66 0.33 1.32 0.66 2 1 C2.64689369 3.93689736 3.1140951 6.77286952 3.5 9.75 C3.62890625 10.72936523 3.7578125 11.70873047 3.890625 12.71777344 C5.20437958 23.86169665 5.56429373 35.04457577 6 46.25 C7.05008274 73.05318351 8.67627399 99.69169596 17.16796875 125.3359375 C17.96227273 127.87920187 18.52835214 130.37973414 19 133 C19.92425781 132.69964844 20.84851563 132.39929688 21.80078125 132.08984375 C26.84436723 130.64936215 31.99022073 130.16387652 37.1875 129.5625 C44.4468936 128.67234784 51.49868731 127.66873666 58.5546875 125.68359375 C61.69023316 124.80704345 64.86071671 124.20714242 68.0625 123.625 C70.61968036 122.80010311 72.11180577 121.93006107 74 120 C75.56851581 110.07583924 71.00361471 101.20468499 66 93 C65.26394531 92.0821875 64.52789063 91.164375 63.76953125 90.21875 C62 88 62 88 62 86 C61.34 86 60.68 86 60 86 C59.67 84.68 59.34 83.36 59 82 C58.34 82 57.68 82 57 82 C54.4247026 78.49226733 52.26529077 74.7132606 50 71 C49.55527344 70.360625 49.11054687 69.72125 48.65234375 69.0625 C45.87605292 64.92294091 45.53130877 61.35218875 45.46875 56.52734375 C46.24680347 52.82586878 47.44283485 50.79765091 50 48 C53.09459654 47.45115873 55.31108359 47.28746286 58.375 47.4375 C59.1175 47.43943359 59.86 47.44136719 60.625 47.44335938 C68.59422374 47.63343803 75.37277168 51.37277168 81 57 C81.125 60.625 81.125 60.625 81 64 C79.515 63.505 79.515 63.505 78 63 C78 61.35 78 59.7 78 58 C77.34 58 76.68 58 76 58 C76 57.34 76 56.68 76 56 C74.35 55.67 72.7 55.34 71 55 C71 54.34 71 53.68 71 53 C69.35 53 67.7 53 66 53 C66 52.34 66 51.68 66 51 C61.38 51 56.76 51 52 51 C52 51.66 52 52.32 52 53 C51.34 53 50.68 53 50 53 C49.03100666 61.4338309 51.13928681 66.21140901 56 73 C56.67289063 73.95648438 57.34578125 74.91296875 58.0390625 75.8984375 C60.62558228 79.51181532 63.2452055 83.07268105 66.05078125 86.51953125 C75.08659089 98.01800644 78.23156057 108.54032868 78 123 C77.34 123 76.68 123 76 123 C76 123.66 76 124.32 76 125 C75.01 125 74.02 125 73 125 C73 125.66 73 126.32 73 127 C72.21753906 127.13277344 71.43507813 127.26554687 70.62890625 127.40234375 C69.11103516 127.66724609 69.11103516 127.66724609 67.5625 127.9375 C66.55316406 128.11152344 65.54382813 128.28554687 64.50390625 128.46484375 C62.0712562 128.74751097 62.0712562 128.74751097 61 130 C59.40591974 130.28515039 57.80176569 130.51451785 56.1953125 130.71875 C55.21949219 130.84636719 54.24367188 130.97398437 53.23828125 131.10546875 C52.21089844 131.23566406 51.18351563 131.36585938 50.125 131.5 C48.10642782 131.75774436 46.08818055 132.01804982 44.0703125 132.28125 C42.72090576 132.45237305 42.72090576 132.45237305 41.34423828 132.62695312 C38.85482335 132.95772172 38.85482335 132.95772172 36 134 C33.16831682 134.30294382 30.33597165 134.50755058 27.49609375 134.71875 C25.00411573 134.8545027 25.00411573 134.8545027 23 136 C21.56713465 136.20268429 20.12826242 136.36439883 18.6875 136.5 C15.40671836 136.83336975 12.22138164 137.27259124 9 138 C9 137.01 9 136.02 9 135 C11.64738916 133.5393715 12.89448334 133 16 133 C15.4225 131.845 14.845 130.69 14.25 129.5 C3.4521212 104.8245657 3.21707796 75.51349906 2 49 C1.92483154 49.70906494 1.84966309 50.41812988 1.7722168 51.14868164 C-1.02207047 77.20123904 -1.02207047 77.20123904 -4 90 C-4.66 90 -5.32 90 -6 90 C-6.103125 91.010625 -6.20625 92.02125 -6.3125 93.0625 C-7.51061386 99.92442484 -10.86808293 105.84416299 -14 112 C-14.66 112 -15.32 112 -16 112 C-16.66 113.65 -17.32 115.3 -18 117 C-18.66 117 -19.32 117 -20 117 C-20 117.66 -20 118.32 -20 119 C-20.66 119 -21.32 119 -22 119 C-22 119.66 -22 120.32 -22 121 C-22.66 121 -23.32 121 -24 121 C-24 121.66 -24 122.32 -24 123 C-24.66 123 -25.32 123 -26 123 C-26 123.66 -26 124.32 -26 125 C-26.99 125 -27.98 125 -29 125 C-29 125.66 -29 126.32 -29 127 C-30.99954746 127.04254356 -33.00041636 127.04080783 -35 127 C-36.52271991 125.47728009 -36.20581982 124.12064841 -36.25 122 C-36.06331381 112.09007456 -30.6421123 99.55395429 -23.5 92.5234375 C-21.56401769 90.55720546 -20.46003138 88.25684345 -19.13330078 85.85888672 C-17.25322605 82.77511054 -14.8891863 80.19946893 -12.4375 77.5625 C-11.95603516 77.02173828 -11.47457031 76.48097656 -10.97851562 75.92382812 C-9.71807597 74.55242817 -8.36411784 73.26831719 -7 72 C-6.01 72 -5.02 72 -4 72 C-3.25719707 61.9405044 -2.89427956 51.90241938 -2.75390625 41.81640625 C-2.73725922 40.66006683 -2.72061218 39.50372742 -2.70346069 38.31234741 C-2.63672496 33.49531985 -2.57434912 28.67830403 -2.52319336 23.86108398 C-2.48373972 20.3043499 -2.43224145 16.74795537 -2.37890625 13.19140625 C-2.3704921 12.09574844 -2.36207794 11.00009064 -2.35340881 9.87123108 C-2.32844582 8.36211403 -2.32844582 8.36211403 -2.30297852 6.82250977 C-2.29267105 5.93668716 -2.28236359 5.05086456 -2.27174377 4.13819885 C-2 2 -2 2 0 0 Z " fill="#070707" transform="translate(569,54)"/>
<path d="M0 0 C4.19738149 0.44927984 5.53409127 2.91871339 8.0859375 6.05859375 C13.35934148 13.49879243 13.84502686 21.19896912 13.8515625 30.03515625 C13.86380859 30.89109375 13.87605469 31.74703125 13.88867188 32.62890625 C13.90195875 38.47512976 13.11471904 43.62014179 11.6640625 49.28515625 C11.0040625 49.28515625 10.3440625 49.28515625 9.6640625 49.28515625 C9.0040625 51.26515625 8.3440625 53.24515625 7.6640625 55.28515625 C8.27894531 55.58808594 8.89382813 55.89101562 9.52734375 56.203125 C15.91330887 59.51323451 18.43442191 61.79038827 20.8515625 68.66015625 C24.12680655 83.52472539 20.13238305 96.97004959 13.6640625 110.28515625 C13.0040625 110.28515625 12.3440625 110.28515625 11.6640625 110.28515625 C11.3546875 111.23390625 11.0453125 112.18265625 10.7265625 113.16015625 C9.6640625 116.28515625 9.6640625 116.28515625 8.6640625 118.28515625 C8.0040625 118.28515625 7.3440625 118.28515625 6.6640625 118.28515625 C6.6640625 119.27515625 6.6640625 120.26515625 6.6640625 121.28515625 C6.0040625 121.28515625 5.3440625 121.28515625 4.6640625 121.28515625 C4.1690625 123.26515625 4.1690625 123.26515625 3.6640625 125.28515625 C3.0040625 125.28515625 2.3440625 125.28515625 1.6640625 125.28515625 C1.4165625 126.00703125 1.1690625 126.72890625 0.9140625 127.47265625 C-0.3359375 130.28515625 -0.3359375 130.28515625 -2.4609375 132.59765625 C-4.96739174 136.19024066 -4.84465042 139.09917568 -4.3359375 143.28515625 C-3.87662477 145.83862366 -3.36129004 148.36367555 -2.7734375 150.890625 C-2.31400859 153.40517786 -2.2634551 155.73468176 -2.3359375 158.28515625 C-3.3259375 157.95515625 -4.3159375 157.62515625 -5.3359375 157.28515625 C-6.21711677 154.4058514 -6.91717972 151.65958596 -7.5234375 148.72265625 C-7.78930664 147.51319336 -7.78930664 147.51319336 -8.06054688 146.27929688 C-8.49743351 144.28378765 -8.91820423 142.28476269 -9.3359375 140.28515625 C-9.6659375 140.94515625 -9.9959375 141.60515625 -10.3359375 142.28515625 C-11.3259375 142.28515625 -12.3159375 142.28515625 -13.3359375 142.28515625 C-13.9959375 143.93515625 -14.6559375 145.58515625 -15.3359375 147.28515625 C-15.9959375 147.28515625 -16.6559375 147.28515625 -17.3359375 147.28515625 C-17.3359375 147.94515625 -17.3359375 148.60515625 -17.3359375 149.28515625 C-18.7265625 150.79296875 -18.7265625 150.79296875 -20.5859375 152.41015625 C-21.18921875 152.94898438 -21.7925 153.4878125 -22.4140625 154.04296875 C-24.3359375 155.28515625 -24.3359375 155.28515625 -28.3359375 155.28515625 C-26.89516704 151.92335851 -25.08843729 149.69359357 -22.3359375 147.28515625 C-21.6759375 147.28515625 -21.0159375 147.28515625 -20.3359375 147.28515625 C-20.0059375 146.29515625 -19.6759375 145.30515625 -19.3359375 144.28515625 C-17.04685322 141.87233768 -14.80726686 139.63593245 -12.13671875 137.6484375 C-9.91150095 134.72814082 -10.08896169 132.87021094 -10.49169922 129.29956055 C-10.60529785 128.51105713 -10.71889648 127.72255371 -10.8359375 126.91015625 C-10.9405127 126.07073486 -11.04508789 125.23131348 -11.15283203 124.36645508 C-12.08340658 117.26935174 -13.39221933 110.24490403 -14.73901367 103.21704102 C-16.16745349 95.62396025 -17.19067508 88.01280904 -18.1484375 80.34765625 C-19.92397097 66.21203506 -22.40237719 52.2403818 -25.05004883 38.24438477 C-25.20091446 37.43517578 -25.35178009 36.6259668 -25.50721741 35.79223633 C-25.78952648 34.27987541 -26.07700501 32.76846577 -26.37083435 31.25830078 C-27.1940374 26.83421489 -27.46598182 22.75889999 -27.3359375 18.28515625 C-26.3459375 18.28515625 -25.3559375 18.28515625 -24.3359375 18.28515625 C-19.8206852 42.93139925 -15.53882001 67.56053907 -12.15942383 92.38935852 C-11.06798802 100.3487031 -9.8027745 108.28200475 -8.50292969 116.2097168 C-7.69034121 121.30790371 -7.14123851 126.1220275 -7.3359375 131.28515625 C-6.6759375 131.28515625 -6.0159375 131.28515625 -5.3359375 131.28515625 C-5.0884375 130.72828125 -4.8409375 130.17140625 -4.5859375 129.59765625 C-3.11817966 126.88230425 -1.26988834 124.68794366 0.6640625 122.28515625 C1.67757914 120.62667448 2.67527045 118.95849664 3.6640625 117.28515625 C4.09589844 116.6715625 4.52773438 116.05796875 4.97265625 115.42578125 C14.28465993 102.1712929 19.67494309 88.18056708 17.31640625 71.8828125 C16.47865988 68.10239399 15.42515725 65.046251 12.6640625 62.28515625 C11.6740625 61.95515625 10.6840625 61.62515625 9.6640625 61.28515625 C9.6640625 60.62515625 9.6640625 59.96515625 9.6640625 59.28515625 C7.6840625 59.28515625 5.7040625 59.28515625 3.6640625 59.28515625 C3.6640625 59.94515625 3.6640625 60.60515625 3.6640625 61.28515625 C-1.2859375 61.78015625 -1.2859375 61.78015625 -6.3359375 62.28515625 C-6.3359375 61.29515625 -6.3359375 60.30515625 -6.3359375 59.28515625 C-5.0159375 59.28515625 -3.6959375 59.28515625 -2.3359375 59.28515625 C-2.0059375 58.29515625 -1.6759375 57.30515625 -1.3359375 56.28515625 C-0.4078125 55.56328125 0.5203125 54.84140625 1.4765625 54.09765625 C6.20326066 50.34811204 8.39660938 45.07818212 9.6640625 39.28515625 C10.70429679 22.14532005 10.70429679 22.14532005 3.4765625 7.16015625 C2.55473286 6.18674003 1.62283406 5.22220807 0.6640625 4.28515625 C0.3340625 4.61515625 0.0040625 4.94515625 -0.3359375 5.28515625 C-2.66891183 5.32608562 -5.00298975 5.32757348 -7.3359375 5.28515625 C-7.3359375 5.94515625 -7.3359375 6.60515625 -7.3359375 7.28515625 C-8.6559375 7.28515625 -9.9759375 7.28515625 -11.3359375 7.28515625 C-11.3359375 7.94515625 -11.3359375 8.60515625 -11.3359375 9.28515625 C-12.3259375 9.28515625 -13.3159375 9.28515625 -14.3359375 9.28515625 C-14.3359375 9.94515625 -14.3359375 10.60515625 -14.3359375 11.28515625 C-14.9959375 11.28515625 -15.6559375 11.28515625 -16.3359375 11.28515625 C-16.6659375 12.27515625 -16.9959375 13.26515625 -17.3359375 14.28515625 C-17.9959375 14.28515625 -18.6559375 14.28515625 -19.3359375 14.28515625 C-19.3359375 17.91515625 -19.3359375 21.54515625 -19.3359375 25.28515625 C-20.3259375 24.95515625 -21.3159375 24.62515625 -22.3359375 24.28515625 C-24.09222667 15.4863214 -24.09222667 15.4863214 -21.2109375 10.91015625 C-20.2621875 10.04390625 -19.3134375 9.17765625 -18.3359375 8.28515625 C-17.6140625 7.56328125 -16.8921875 6.84140625 -16.1484375 6.09765625 C-12.71702501 3.88630153 -9.37051151 2.93780233 -5.4453125 1.8984375 C-3.02097716 1.19358445 -2.55658098 0.31209099 0 0 Z " fill="#0A0A0A" transform="translate(356.3359375,36.71484375)"/>
<path d="M0 0 C6.97803854 4.95162922 9.50354053 16.45254302 10.875 24.5 C12.87332105 37.50618404 12.26450985 50.88438076 12 64 C9 63 9 63 7.75390625 60.5234375 C7.16416016 58.96496094 7.16416016 58.96496094 6.5625 57.375 C5.12648971 53.71970108 3.70291753 50.24832296 1.6875 46.875 C0 44 0 44 0 42 C-0.66 42 -1.32 42 -2 42 C-3.11328125 40.390625 -3.11328125 40.390625 -4.3125 38.25 C-7.0702982 33.65366966 -9.81507913 30.72830696 -15 29 C-15 28.34 -15 27.68 -15 27 C-17.97 27 -20.94 27 -24 27 C-24 27.66 -24 28.32 -24 29 C-24.66 29 -25.32 29 -26 29 C-29.38558068 43.30526155 -29.38558068 43.30526155 -26.73046875 56.83984375 C-23.39532279 59.07582197 -19.84645427 58.54620801 -16 58 C-13.08811642 57.09224682 -10.29651005 56.04530288 -7.48046875 54.875 C-5 54 -5 54 -1 54 C-1 54.66 -1 55.32 -1 56 C-1.66 56 -2.32 56 -3 56 C-3 56.66 -3 57.32 -3 58 C-4.32 58 -5.64 58 -7 58 C-7 58.66 -7 59.32 -7 60 C-13.34730369 62.36178742 -20.31110147 63.2107753 -27 62 C-29.8671875 59.97265625 -29.8671875 59.97265625 -32 57 C-32.45987757 54.09551007 -32.62250371 51.87867567 -32.5 49 C-32.48300049 48.25540527 -32.46600098 47.51081055 -32.44848633 46.74365234 C-32.18422688 39.66392206 -31.82919302 31.17685279 -27.76171875 25.171875 C-25.19861711 23.46692934 -23.17606567 23.60217407 -20.125 23.625 C-19.09632813 23.61726563 -18.06765625 23.60953125 -17.0078125 23.6015625 C-13.63308644 24.04860413 -11.70295444 24.95532967 -9 27 C-9 27.66 -9 28.32 -9 29 C-8.443125 29.04125 -7.88625 29.0825 -7.3125 29.125 C-3.7482502 30.47363506 -2.183974 32.96670278 0 36 C0 36.99 0 37.98 0 39 C0.99 39.33 1.98 39.66 3 40 C4.38671875 42.28515625 4.38671875 42.28515625 5.6875 45.0625 C6.12449219 45.98160156 6.56148438 46.90070313 7.01171875 47.84765625 C7.50091797 48.91306641 7.50091797 48.91306641 8 50 C8.7949121 35.42661144 7.1989395 19.06114756 0.63671875 5.8125 C-1.54916366 3.39185695 -3.10787889 3.17409336 -6.3125 2.8125 C-8.88029647 2.79737939 -8.88029647 2.79737939 -11 3 C-11 3.66 -11 4.32 -11 5 C-13.64 5.66 -16.28 6.32 -19 7 C-19 7.99 -19 8.98 -19 10 C-19.99 10 -20.98 10 -22 10 C-22.33 11.32 -22.66 12.64 -23 14 C-23.66 14 -24.32 14 -25 14 C-25 16.31 -25 18.62 -25 21 C-25.99 20.67 -26.98 20.34 -28 20 C-28.66849898 16.07256848 -28.69195117 14.07396587 -26.5 10.671875 C-19.08957904 1.92989403 -11.6853133 -1.92158485 0 0 Z " fill="#080808" transform="translate(480,102)"/>
<path d="M0 0 C0.88945312 0.00644531 1.77890625 0.01289063 2.6953125 0.01953125 C4.875 0.1875 4.875 0.1875 5.875 1.1875 C6.67990418 8.07536858 5.8206464 12.51563329 1.875 18.1875 C1.215 18.1875 0.555 18.1875 -0.125 18.1875 C-0.125 18.8475 -0.125 19.5075 -0.125 20.1875 C-1.115 20.1875 -2.105 20.1875 -3.125 20.1875 C-3.125 20.8475 -3.125 21.5075 -3.125 22.1875 C-4.115 22.1875 -5.105 22.1875 -6.125 22.1875 C-6.125 22.8475 -6.125 23.5075 -6.125 24.1875 C-7.115 24.1875 -8.105 24.1875 -9.125 24.1875 C-9.125 24.8475 -9.125 25.5075 -9.125 26.1875 C-11.87578884 27.10442961 -13.48448913 27.29636083 -16.3125 27.25 C-18.1996875 27.2190625 -18.1996875 27.2190625 -20.125 27.1875 C-20.21181476 30.81234999 -20.26532721 34.43693443 -20.3125 38.0625 C-20.33763672 39.09503906 -20.36277344 40.12757813 -20.38867188 41.19140625 C-20.39833984 42.17753906 -20.40800781 43.16367188 -20.41796875 44.1796875 C-20.44153442 45.54649658 -20.44153442 45.54649658 -20.46557617 46.94091797 C-20.35318604 47.68229004 -20.2407959 48.42366211 -20.125 49.1875 C-16.49280895 51.6089607 -14.63341442 51.48619516 -10.3125 51.5 C-9.10980469 51.51675781 -7.90710938 51.53351563 -6.66796875 51.55078125 C-2.84581639 51.15887368 -0.50022252 49.93529711 2.875 48.1875 C4.36 48.6825 4.36 48.6825 5.875 49.1875 C5.75 51.0625 5.75 51.0625 4.875 53.1875 C-0.10555675 55.40021202 -4.83529344 55.58548412 -10.1875 55.625 C-10.97705078 55.65787109 -11.76660156 55.69074219 -12.58007812 55.72460938 C-16.52641021 55.76099634 -18.6809161 55.44957286 -22.13671875 53.41015625 C-25.17819758 48.48045088 -24.95549794 43.87699446 -24.875 38.1875 C-24.8639624 37.06206787 -24.8529248 35.93663574 -24.84155273 34.77709961 C-24.3795467 20.74125486 -18.20250583 11.81581468 -8.125 2.1875 C-4.84237969 -0.00091354 -3.80709102 -0.06104665 0 0 Z " fill="#080808" transform="translate(313.125,130.8125)"/>
<path d="M0 0 C6.18465128 5.33159593 7.36725935 12.25498926 9.1796875 19.8671875 C10.21635211 23.82625899 11.58005081 27.6078443 13.03515625 31.4296875 C13.69796272 33.19538248 14.32384675 34.97524284 14.91821289 36.76513672 C15.9904011 39.97129645 17.12366455 43.14903366 18.2734375 46.328125 C20.92098797 53.72106491 23.435582 61.15420215 25.91210938 68.60595703 C26.62925681 70.7628025 27.34964266 72.91854801 28.0703125 75.07421875 C30.26743147 81.66411211 32.4407458 88.25021166 34.32519531 94.93823242 C35.54399767 98.66210578 37.2136829 103.2136829 40 106 C40.19634033 105.21761963 40.39268066 104.43523926 40.5949707 103.62915039 C41.48761305 100.10343609 42.39976153 96.58306267 43.3125 93.0625 C43.62123047 91.83080078 43.92996094 90.59910156 44.24804688 89.33007812 C44.55419922 88.16025391 44.86035156 86.99042969 45.17578125 85.78515625 C45.45333252 84.70113525 45.73088379 83.61711426 46.0168457 82.50024414 C46.34128662 81.67516357 46.66572754 80.85008301 47 80 C47.99 79.67 48.98 79.34 50 79 C51.12061072 82.36183215 50.92298104 82.85282857 49.7265625 86.0078125 C47.87179094 91.21763158 46.60738257 96.48903175 45.375 101.875 C44.94647682 103.72683232 44.51683896 105.57840714 44.0859375 107.4296875 C43.9007959 108.23647949 43.7156543 109.04327148 43.52490234 109.87451172 C43 112 43 112 42 115 C41.01 115 40.02 115 39 115 C32.37473242 102.52572235 28.18554532 89.63109551 24.17578125 76.11328125 C22.35582083 70.01373804 20.28829607 64.05269277 18.09472656 58.078125 C17.10679536 55.30028455 16.23875425 52.5238594 15.4375 49.6875 C14.52909727 46.54381416 13.44780375 43.65140569 12.0625 40.6875 C9.85363049 35.93970001 8.39669162 31.0349614 6.9296875 26.015625 C6.05834683 23.02355587 6.05834683 23.02355587 4.890625 20.31640625 C3.78844997 17.44978435 3.85842126 15.04394283 4 12 C3.34 12 2.68 12 2 12 C1.67 10.68 1.34 9.36 1 8 C0.73445313 9.01320313 0.46890625 10.02640625 0.1953125 11.0703125 C-0.16135689 12.42190177 -0.51813343 13.77346278 -0.875 15.125 C-1.04902344 15.79015625 -1.22304687 16.4553125 -1.40234375 17.140625 C-1.752465 18.46330527 -2.11016167 19.78400462 -2.47558594 21.10253906 C-2.96484499 22.87280041 -3.42498263 24.65103872 -3.8828125 26.4296875 C-4.25148438 27.27789062 -4.62015625 28.12609375 -5 29 C-7.06982422 29.66064453 -7.06982422 29.66064453 -9 30 C-3.26213592 3.26213592 -3.26213592 3.26213592 0 0 Z " fill="#151515" transform="translate(85,115)"/>
<path d="M0 0 C7.57440455 6.38317772 9.9832057 19.8551019 12.23828125 29.11328125 C12.70828892 31.87605414 12.70828892 31.87605414 14 33 C16.16149321 42.23883956 17.62944503 51.61696979 19 61 C27.58 61 36.16 61 45 61 C45.33 61.99 45.66 62.98 46 64 C37.42 64 28.84 64 20 64 C20.598125 66.26875 21.19625 68.5375 21.8125 70.875 C26.12616625 88.532132 27.63268292 106.86308972 27 125 C25.68 124.67 24.36 124.34 23 124 C23.03480469 123.14664063 23.06960938 122.29328125 23.10546875 121.4140625 C23.4735146 104.41384952 21.62777626 87.05611921 17.55078125 70.5390625 C17 68 17 68 17 64 C16.0925 64.309375 15.185 64.61875 14.25 64.9375 C9.84475194 66.21412291 5.42795724 66.46367545 0.8671875 66.75390625 C-1.82289113 66.98479856 -4.36650374 67.41638636 -7 68 C-5.25 64.125 -5.25 64.125 -3 63 C-1.10811296 62.79329914 0.78903531 62.63339275 2.6875 62.5 C7.16313425 62.18153047 11.56271729 61.66977852 16 61 C15.73445313 59.97261719 15.46890625 58.94523437 15.1953125 57.88671875 C11.97787815 45.3047689 11.97787815 45.3047689 10.9375 39.0625 C10.25267487 35.0775262 9.27385273 31.39595463 7.91796875 27.58984375 C6.27168182 22.94521297 4.80002812 18.23854832 3.28125 13.55078125 C2.07447125 9.97982378 2.07447125 9.97982378 0.32421875 6.69140625 C-1 4 -1 4 -0.6875 1.625 C-0.460625 1.08875 -0.23375 0.5525 0 0 Z " fill="#080808" transform="translate(241,89)"/>
<path d="M0 0 C18.14085371 -0.55659438 18.14085371 -0.55659438 25 3 C25.63292969 3.31324219 26.26585937 3.62648438 26.91796875 3.94921875 C31.80306514 6.49752676 34.26901131 8.80703393 36 14 C36.90896543 29.90689495 34.24634761 42.67146152 27 57 C26.34 57 25.68 57 25 57 C25 57.66 25 58.32 25 59 C24.34 59 23.68 59 23 59 C22.67 60.32 22.34 61.64 22 63 C20.02 63.495 20.02 63.495 18 64 C18 64.66 18 65.32 18 66 C17.34 66 16.68 66 16 66 C16 66.66 16 67.32 16 68 C14.02 68 12.04 68 10 68 C9.52014033 66.72942818 9.0411407 65.45853152 8.5625 64.1875 C8.16224609 63.12595703 8.16224609 63.12595703 7.75390625 62.04296875 C0.8113432 43.22970203 7.15208565 20.43980967 15 3 C10.05 3 5.1 3 0 3 C0 2.01 0 1.02 0 0 Z M18 5 C17.74605469 5.64066406 17.49210937 6.28132813 17.23046875 6.94140625 C16.88628906 7.80636719 16.54210937 8.67132813 16.1875 9.5625 C15.82269531 10.48289062 15.45789063 11.40328125 15.08203125 12.3515625 C14.24230602 14.40691884 13.32390096 16.43020951 12.375 18.4375 C9.11750211 26.87738089 8.65753743 35.66019869 8.6875 44.625 C8.67138672 45.59695312 8.65527344 46.56890625 8.63867188 47.5703125 C8.63440651 53.91717938 9.58399977 59.1259109 12 65 C22.4009448 60.1067285 27.16790532 49.32195969 31.01953125 39.11328125 C32.77342697 33.54413827 33.1794699 28.26211047 33.25 22.4375 C33.27578125 21.15746094 33.3015625 19.87742187 33.328125 18.55859375 C32.98102149 14.79417357 32.34006345 12.93601418 30 10 C29.01 9.67 28.02 9.34 27 9 C27 8.34 27 7.68 27 7 C25.68 7 24.36 7 23 7 C23 6.34 23 5.68 23 5 C21.35 5 19.7 5 18 5 Z " fill="#080808" transform="translate(394,107)"/>
<path d="M0 0 C1.49275852 0.01191031 2.98554311 0.05589241 4.4765625 0.12890625 C5.2190625 0.13083984 5.9615625 0.13277344 6.7265625 0.13476562 C14.69578624 0.32484428 21.47433418 4.06417793 27.1015625 9.69140625 C27.2265625 13.31640625 27.2265625 13.31640625 27.1015625 16.69140625 C26.1115625 16.36140625 25.1215625 16.03140625 24.1015625 15.69140625 C24.1015625 14.04140625 24.1015625 12.39140625 24.1015625 10.69140625 C23.4415625 10.69140625 22.7815625 10.69140625 22.1015625 10.69140625 C22.1015625 10.03140625 22.1015625 9.37140625 22.1015625 8.69140625 C19.6265625 8.19640625 19.6265625 8.19640625 17.1015625 7.69140625 C17.1015625 7.03140625 17.1015625 6.37140625 17.1015625 5.69140625 C15.4515625 5.69140625 13.8015625 5.69140625 12.1015625 5.69140625 C12.1015625 5.03140625 12.1015625 4.37140625 12.1015625 3.69140625 C7.4815625 3.69140625 2.8615625 3.69140625 -1.8984375 3.69140625 C-1.8984375 4.35140625 -1.8984375 5.01140625 -1.8984375 5.69140625 C-2.5584375 5.69140625 -3.2184375 5.69140625 -3.8984375 5.69140625 C-4.86743084 14.12523715 -2.75915069 18.90281526 2.1015625 25.69140625 C2.77445313 26.64789063 3.44734375 27.604375 4.140625 28.58984375 C6.72714478 32.20322157 9.346768 35.7640873 12.15234375 39.2109375 C21.18815339 50.70941269 24.33312307 61.23173493 24.1015625 75.69140625 C23.4415625 75.69140625 22.7815625 75.69140625 22.1015625 75.69140625 C22.1015625 76.35140625 22.1015625 77.01140625 22.1015625 77.69140625 C21.1115625 77.69140625 20.1215625 77.69140625 19.1015625 77.69140625 C19.1015625 78.35140625 19.1015625 79.01140625 19.1015625 79.69140625 C18.31910156 79.82417969 17.53664063 79.95695312 16.73046875 80.09375 C15.21259766 80.35865234 15.21259766 80.35865234 13.6640625 80.62890625 C12.15005859 80.88994141 12.15005859 80.88994141 10.60546875 81.15625 C8.1728187 81.43891722 8.1728187 81.43891722 7.1015625 82.69140625 C5.41972302 82.92427633 3.7303209 83.10404791 2.0390625 83.25390625 C1.11996094 83.33769531 0.20085938 83.42148438 -0.74609375 83.5078125 C-1.45636719 83.56839844 -2.16664063 83.62898438 -2.8984375 83.69140625 C-2.5684375 82.37140625 -2.2384375 81.05140625 -1.8984375 79.69140625 C-0.81304688 79.52125 0.27234375 79.35109375 1.390625 79.17578125 C2.83606539 78.93174586 4.28137106 78.68691163 5.7265625 78.44140625 C6.79583984 78.27705078 6.79583984 78.27705078 7.88671875 78.109375 C12.87459479 77.23992872 16.07240066 75.76729636 20.1015625 72.69140625 C20.23563381 61.16127362 17.12462666 51.95484177 9.87109375 42.91015625 C8.1015625 40.69140625 8.1015625 40.69140625 8.1015625 38.69140625 C7.4415625 38.69140625 6.7815625 38.69140625 6.1015625 38.69140625 C5.7715625 37.37140625 5.4415625 36.05140625 5.1015625 34.69140625 C4.4415625 34.69140625 3.7815625 34.69140625 3.1015625 34.69140625 C0.5262651 31.18367358 -1.63314673 27.40466685 -3.8984375 23.69140625 C-4.34316406 23.05203125 -4.78789063 22.41265625 -5.24609375 21.75390625 C-8.02238458 17.61434716 -8.36712873 14.043595 -8.4296875 9.21875 C-7.28527351 3.77436875 -5.59852263 0.99292435 0 0 Z " fill="#0A0A0A" transform="translate(622.8984375,101.30859375)"/>
<path d="M0 0 C2.62684253 0.98970034 3.78651552 1.62165805 5.18652344 4.1027832 C7.84903613 11.70644047 9.20105903 19.21296923 10.25 27.1875 C10.42273438 28.42564453 10.59546875 29.66378906 10.7734375 30.93945312 C11.1930499 33.95833123 11.60166867 36.97825339 12 40 C13.83529081 37.07738716 15.31819703 34.39399786 16.33203125 31.09765625 C17.93453739 26.66450655 20.41780721 23.76748718 23.6875 20.4375 C24.21915771 19.87957764 24.75081543 19.32165527 25.29858398 18.74682617 C40.15026049 3.33403147 40.15026049 3.33403147 50.9375 2.875 C51.9584375 2.936875 51.9584375 2.936875 53 3 C55.15305957 6.85756507 56.39253254 9.55129785 56 14 C55.01 13.67 54.02 13.34 53 13 C52.29618843 11.01276732 51.6288189 9.01222047 51 7 C50.34 6.67 49.68 6.34 49 6 C49 6.66 49 7.32 49 8 C47.453125 8.12375 47.453125 8.12375 45.875 8.25 C36.27998855 10.10709899 29.94097435 18.76542639 24 26 C23.67 26.66 23.34 27.32 23 28 C22.34 28 21.68 28 21 28 C20.81824219 28.65226562 20.63648438 29.30453125 20.44921875 29.9765625 C18.29493088 37.46685572 18.29493088 37.46685572 16.375 40.9375 C13.2167537 47.97177586 13.87560499 56.41190414 14 64 C13.01 63.67 12.02 63.34 11 63 C10.89453857 62.15518066 10.78907715 61.31036133 10.68041992 60.43994141 C8.14695589 32.17528586 8.14695589 32.17528586 0.76953125 5.06640625 C0 3 0 3 0 0 Z " fill="#090909" transform="translate(501,106)"/>
<path d="M0 0 C0.66 0 1.32 0 2 0 C4.22059824 8.54076247 1.16410797 16.22345823 -2.96337891 23.75878906 C-7.67612625 31.65752425 -13.55636578 38.55446797 -21 44 C-21.66 44 -22.32 44 -23 44 C-22.82544505 36.15861543 -20.79150484 30.63938814 -16.9375 23.875 C-16.46505859 23.01390625 -15.99261719 22.1528125 -15.50585938 21.265625 C-14.35223276 19.16812206 -13.18381401 17.08056514 -12 15 C-11.34 15 -10.68 15 -10 15 C-9.34 13.35 -8.68 11.7 -8 10 C-7.34 10 -6.68 10 -6 10 C-5.67 8.68 -5.34 7.36 -5 6 C-4.34 6 -3.68 6 -3 6 C-2.67 4.68 -2.34 3.36 -2 2 C-1.34 2 -0.68 2 0 2 C0 1.34 0 0.68 0 0 Z " fill="#F9F9F9" transform="translate(559,134)"/>
<path d="M0 0 C0.33 0.99 0.66 1.98 1 3 C0.34 3 -0.32 3 -1 3 C-1.2578125 3.86109375 -1.515625 4.7221875 -1.78125 5.609375 C-3.03734944 9.10390806 -4.63592642 12.04316155 -6.5 15.25 C-9.55831445 20.78802888 -11.30576858 25.72358125 -12 32 C-1.55383676 24.17954506 5.26012005 16.18826272 10 4 C10.99 4 11.98 4 13 4 C12.59683075 10.31631828 10.28767869 14.64993984 7 20 C6.34 20 5.68 20 5 20 C4.01 22.475 4.01 22.475 3 25 C2.34 25 1.68 25 1 25 C1 25.66 1 26.32 1 27 C0.34 27 -0.32 27 -1 27 C-1 27.66 -1 28.32 -1 29 C-1.66 29 -2.32 29 -3 29 C-3 29.66 -3 30.32 -3 31 C-3.66 31 -4.32 31 -5 31 C-5 31.66 -5 32.32 -5 33 C-5.99 33 -6.98 33 -8 33 C-8 33.66 -8 34.32 -8 35 C-9.99954746 35.04254356 -12.00041636 35.04080783 -14 35 C-15.52271991 33.47728009 -15.20581982 32.12064841 -15.25 30 C-15.09694612 21.87539011 -11.92973003 15.54470191 -8.0625 8.5625 C-7.72669922 7.94673096 -7.39089844 7.33096191 -7.04492188 6.6965332 C-5.13544804 3.37757591 -3.70133611 1.25033949 0 0 Z " fill="#0B0B0B" transform="translate(548,146)"/>
<path d="M0 0 C1.98 0 3.96 0 6 0 C5.93912884 1.39699314 5.85011115 2.7927696 5.75 4.1875 C5.68039062 5.35345703 5.68039062 5.35345703 5.609375 6.54296875 C4.25538868 12.00231104 0.11124019 14.91670008 -4.4375 17.8125 C-5.36433594 18.41707031 -6.29117187 19.02164063 -7.24609375 19.64453125 C-10.13520499 21.0665477 -11.83106302 21.29331359 -15 21 C-14.34 18.36 -13.68 15.72 -13 13 C-12.34 13 -11.68 13 -11 13 C-11 12.01 -11 11.02 -11 10 C-10.34 10 -9.68 10 -9 10 C-8.67 8.68 -8.34 7.36 -8 6 C-7.34 6 -6.68 6 -6 6 C-6 5.34 -6 4.68 -6 4 C-5.01 4 -4.02 4 -3 4 C-3 3.34 -3 2.68 -3 2 C-2.01 2 -1.02 2 0 2 C0 1.34 0 0.68 0 0 Z " fill="#F9F9F9" transform="translate(310,134)"/>
<path d="M0 0 C2.15305957 3.85756507 3.39253254 6.55129785 3 11 C2.01 10.67 1.02 10.34 0 10 C-0.70381157 8.01276732 -1.3711811 6.01222047 -2 4 C-2.66 3.67 -3.32 3.34 -4 3 C-4 3.66 -4 4.32 -4 5 C-5.546875 5.12375 -5.546875 5.12375 -7.125 5.25 C-16.72001145 7.10709899 -23.05902565 15.76542639 -29 23 C-29.33 23.66 -29.66 24.32 -30 25 C-30.66 25 -31.32 25 -32 25 C-32.15855469 25.69867188 -32.31710937 26.39734375 -32.48046875 27.1171875 C-34.40994854 34.6432247 -34.40994854 34.6432247 -37.6875 36.625 C-38.450625 36.74875 -39.21375 36.8725 -40 37 C-36.03106239 23.46953087 -25.9264247 11.47165791 -14.5 3.1875 C-9.76632863 0.9390061 -5.25339881 -0.31838781 0 0 Z " fill="#151515" transform="translate(554,109)"/>
<path d="M0 0 C0.99 0 1.98 0 3 0 C6.10156452 5.03260255 8.09751021 9.75750431 9.6875 15.4375 C9.89955078 16.14970703 10.11160156 16.86191406 10.33007812 17.59570312 C12.27802737 24.36129341 13.15079425 30.93645995 13.0625 38 C13.05347656 38.94875 13.04445312 39.8975 13.03515625 40.875 C13.02355469 41.57625 13.01195312 42.2775 13 43 C11.68 42.67 10.36 42.34 9 42 C9.04125 40.7625 9.0825 39.525 9.125 38.25 C9.0950127 28.65406519 6.81386789 19.77533214 3.8046875 10.71484375 C3 8 3 8 3 5 C2.34 5 1.68 5 1 5 C0.34 3.68 -0.32 2.36 -1 1 C-0.67 0.67 -0.34 0.34 0 0 Z " fill="#080808" transform="translate(214,152)"/>
<path d="M0 0 C0.66 0.33 1.32 0.66 2 1 C1.34 2.32 0.68 3.64 0 5 C-0.66 5 -1.32 5 -2 5 C-2 5.99 -2 6.98 -2 8 C-2.99 8 -3.98 8 -5 8 C-5.33 9.32 -5.66 10.64 -6 12 C-6.66 12 -7.32 12 -8 12 C-8 14.31 -8 16.62 -8 19 C-8.99 18.67 -9.98 18.34 -11 18 C-11.69020211 13.94506259 -11.72653975 12.03984943 -9.32421875 8.6015625 C-6.39707808 5.29448218 -3.68525273 2.45683515 0 0 Z " fill="#0F0F0F" transform="translate(463,104)"/>
<path d="M0 0 C2.15305957 3.85756507 3.39253254 6.55129785 3 11 C2.01 10.67 1.02 10.34 0 10 C-0.70381157 8.01276732 -1.3711811 6.01222047 -2 4 C-2.66 3.67 -3.32 3.34 -4 3 C-4 3.66 -4 4.32 -4 5 C-8.455 5.495 -8.455 5.495 -13 6 C-9.73120626 0.83874673 -5.9714046 -0.34122312 0 0 Z " fill="#070707" transform="translate(554,109)"/>
<path d="M0 0 C0.99 0 1.98 0 3 0 C2.46148032 5.27749285 1.22656164 9.25645564 -1 14 C-1.66 14 -2.32 14 -3 14 C-3.33 14.66 -3.66 15.32 -4 16 C-6.0625 17.125 -6.0625 17.125 -8 18 C-6.65731636 14.51526757 -5.13966904 11.19804045 -3.4375 7.875 C-2.08662907 5.23739445 -0.93892243 2.8167673 0 0 Z " fill="#141414" transform="translate(371,133)"/>
<path d="M0 0 C0.33 0.99 0.66 1.98 1 3 C0.34 3 -0.32 3 -1 3 C-1.2475 3.94875 -1.495 4.8975 -1.75 5.875 C-3 9 -3 9 -5 10.3125 C-5.99 10.6528125 -5.99 10.6528125 -7 11 C-7.99 11.495 -7.99 11.495 -9 12 C-8.33333333 10.66666667 -7.66666667 9.33333333 -7 8 C-6.54625 6.96875 -6.0925 5.9375 -5.625 4.875 C-3.95267372 1.91626889 -3.14120461 1.083174 0 0 Z " fill="#171717" transform="translate(548,146)"/>
<path d="M0 0 C0.99 0 1.98 0 3 0 C2.67 2.31 2.34 4.62 2 7 C0.35 7.66 -1.3 8.32 -3 9 C-2.01 6.03 -1.02 3.06 0 0 Z " fill="#131313" transform="translate(558,150)"/>
</svg>
