<?xml version="1.0" encoding="UTF-8"?>
<!DOCTYPE svg PUBLIC "-//W3C//DTD SVG 1.1//EN" "http://www.w3.org/Graphics/SVG/1.1/DTD/svg11.dtd">
<svg xmlns="http://www.w3.org/2000/svg" version="1.1" width="841px" height="779px" style="shape-rendering:geometricPrecision; text-rendering:geometricPrecision; image-rendering:optimizeQuality; fill-rule:evenodd; clip-rule:evenodd" xmlns:xlink="http://www.w3.org/1999/xlink">
<g><path style="opacity:0.995" fill="#e6e6e6" d="M 659.5,16.5 C 681.503,16.3334 703.503,16.5 725.5,17C 728.5,18 731.5,19 734.5,20C 755.167,20.3333 775.833,20.6667 796.5,21C 799.415,27.3646 803.249,33.1979 808,38.5C 812.206,46.2451 815.872,54.2451 819,62.5C 820.64,72.9933 822.64,83.3266 825,93.5C 825.667,119.5 825.667,145.5 825,171.5C 824,183.167 823,194.833 822,206.5C 821.667,222.5 821.333,238.5 821,254.5C 816.516,305.429 812.183,356.429 808,407.5C 807.83,409.715 807.163,411.715 806,413.5C 805.735,425.007 804.735,436.34 803,447.5C 801.333,455.833 799.667,464.167 798,472.5C 797.478,481.958 796.478,491.291 795,500.5C 788.941,530.357 783.608,560.357 779,590.5C 774.059,615.961 768.725,641.294 763,666.5C 761.29,676.358 759.957,686.358 759,696.5C 756.853,700.729 754.853,705.062 753,709.5C 747.013,715.695 740.513,721.195 733.5,726C 730.576,726.988 727.576,727.654 724.5,728C 723.833,728.667 723.167,729.333 722.5,730C 716.353,731.755 710.353,733.755 704.5,736C 701.918,736.896 699.584,738.229 697.5,740C 689.219,741.78 680.885,743.28 672.5,744.5C 672.291,745.086 671.957,745.586 671.5,746C 650.008,748.428 628.341,749.095 606.5,748C 603.362,746.756 600.028,746.089 596.5,746C 580.431,735.603 564.097,725.603 547.5,716C 540.063,708.452 531.729,702.119 522.5,697C 512.797,686.963 502.797,677.296 492.5,668C 487.163,665.215 482.497,661.548 478.5,657C 475.934,655.132 473.1,653.632 470,652.5C 467.961,654.874 465.628,656.874 463,658.5C 458.405,666.004 453.072,673.004 447,679.5C 438.412,686.966 430.745,695.3 424,704.5C 418.579,709.921 413.079,715.421 407.5,721C 405.073,722.591 402.407,723.425 399.5,723.5C 399.67,724.822 399.337,725.989 398.5,727C 392.593,729.903 386.927,733.236 381.5,737C 380.207,737.49 378.873,737.657 377.5,737.5C 377.67,738.822 377.337,739.989 376.5,741C 372.478,741.37 369.145,743.037 366.5,746C 356.114,750.69 345.114,753.523 333.5,754.5C 333.291,755.086 332.957,755.586 332.5,756C 305.502,757.989 278.502,757.989 251.5,756C 251.043,755.586 250.709,755.086 250.5,754.5C 240.074,752.073 229.407,750.906 218.5,751C 218.043,750.586 217.709,750.086 217.5,749.5C 212.868,748.672 208.202,748.172 203.5,748C 194.888,744.511 185.888,741.845 176.5,740C 175.33,738.245 173.663,737.245 171.5,737C 163.488,728.468 156.322,719.301 150,709.5C 143.093,696.688 136.427,683.688 130,670.5C 127.971,662.742 124.971,655.408 121,648.5C 119.126,641.88 117.46,635.213 116,628.5C 115.222,625.816 113.889,623.483 112,621.5C 108.893,606.579 104.56,591.913 99,577.5C 98.6667,574.167 98.3333,570.833 98,567.5C 95.7473,559.14 93.4139,550.806 91,542.5C 88.7702,528.686 85.7702,515.02 82,501.5C 81.6667,498.167 81.3333,494.833 81,491.5C 74.3383,469.876 69.3383,447.876 66,425.5C 60.2307,411.198 55.8974,396.532 53,381.5C 49.5269,377.506 47.5269,372.839 47,367.5C 45.2555,354.509 43.5888,341.509 42,328.5C 39.7822,320.345 37.7822,312.012 36,303.5C 34.1591,288.265 32.4924,272.932 31,257.5C 30,252.5 29,247.5 28,242.5C 25.9745,213.357 23.6412,184.357 21,155.5C 20.3333,132.5 20.3333,109.5 21,86.5C 28.4617,75.7776 38.4617,68.7776 51,65.5C 52.1685,64.9915 53.0019,64.1581 53.5,63C 59.2685,61.1059 65.2685,60.1059 71.5,60C 72.1667,59.3333 72.8333,58.6667 73.5,58C 97.3464,56.1879 121.346,55.0212 145.5,54.5C 145.709,53.914 146.043,53.414 146.5,53C 174.313,52.64 201.979,51.9734 229.5,51C 236.684,57.5145 244.184,63.6812 252,69.5C 256.221,76.1653 260.888,82.4986 266,88.5C 267.98,96.1153 271.646,102.782 277,108.5C 294.756,156.106 309.089,204.772 320,254.5C 320.333,259.833 320.667,265.167 321,270.5C 322.269,274.649 322.935,278.982 323,283.5C 324.044,284.623 324.71,285.956 325,287.5C 329.499,279.166 334.499,271.166 340,263.5C 342.795,261.707 345.295,259.54 347.5,257C 348.448,256.517 349.448,256.351 350.5,256.5C 350.351,255.448 350.517,254.448 351,253.5C 353.719,249.924 357.219,247.424 361.5,246C 362.167,245 362.833,244 363.5,243C 369.873,239.074 376.539,235.741 383.5,233C 403.427,228.739 423.76,227.406 444.5,229C 452.628,230.91 460.628,233.243 468.5,236C 472.357,239.097 476.69,241.43 481.5,243C 482.047,243.925 482.713,244.758 483.5,245.5C 488.446,247.198 493.113,249.364 497.5,252C 505.742,258.845 513.575,266.012 521,273.5C 521.333,274.5 521.667,275.5 522,276.5C 522.333,271.167 522.667,265.833 523,260.5C 527.238,240.542 531.238,220.542 535,200.5C 537.813,174.854 541.146,149.187 545,123.5C 547.549,113.69 549.549,103.69 551,93.5C 553.788,83.4463 556.788,73.4463 560,63.5C 564.378,56.4462 569.545,49.9462 575.5,44C 581.66,39.9551 587.993,36.2884 594.5,33C 597.983,31.4127 601.65,30.246 605.5,29.5C 605.709,28.914 606.043,28.414 606.5,28C 611.657,26.3639 616.99,25.1972 622.5,24.5C 622.709,23.914 623.043,23.414 623.5,23C 632.5,22 641.5,21 650.5,20C 652.962,18.7844 655.629,18.1177 658.5,18C 659.056,17.6174 659.389,17.1174 659.5,16.5 Z"/></g>
<g><path style="opacity:1" fill="#000000" d="M 703.5,76.5 C 709.537,76.1707 715.537,76.5041 721.5,77.5C 733.4,80.7183 745.066,84.0516 756.5,87.5C 756.5,88.5 756.5,89.5 756.5,90.5C 758.821,90.2289 760.821,90.8955 762.5,92.5C 774.011,121.596 778.511,151.929 776,183.5C 772.08,212.828 766.747,241.828 760,270.5C 753.075,318.004 747.408,365.671 743,413.5C 742.056,418.567 741.056,423.567 740,428.5C 737.279,470.089 735.446,511.755 734.5,553.5C 733.139,566.288 731.639,578.955 730,591.5C 728.327,601.358 725.66,611.025 722,620.5C 716.326,628.997 710.493,637.33 704.5,645.5C 701.185,645.972 698.851,647.805 697.5,651C 694.898,652.14 692.231,652.973 689.5,653.5C 688.355,657.29 685.688,659.29 681.5,659.5C 677.539,662.001 673.539,664.501 669.5,667C 668.207,667.49 666.873,667.657 665.5,667.5C 665.5,668.5 665.5,669.5 665.5,670.5C 660.038,670.483 655.705,672.65 652.5,677C 650.866,677.494 649.199,677.66 647.5,677.5C 647.719,678.675 647.386,679.675 646.5,680.5C 642.367,682.224 638.367,684.058 634.5,686C 629.177,686.499 623.844,686.666 618.5,686.5C 618.5,685.5 618.5,684.5 618.5,683.5C 615.657,683.058 612.991,682.058 610.5,680.5C 607.733,674.385 603.066,671.052 596.5,670.5C 596.719,669.325 596.386,668.325 595.5,667.5C 593.448,666.266 591.781,664.6 590.5,662.5C 589.675,661.614 588.675,661.281 587.5,661.5C 585.774,657.946 583.441,654.779 580.5,652C 579.5,651.667 578.5,651.333 577.5,651C 576.149,647.805 573.815,645.972 570.5,645.5C 569.167,642.833 567.833,640.167 566.5,637.5C 565.5,637.5 564.5,637.5 563.5,637.5C 562.261,633.259 559.594,630.259 555.5,628.5C 554.727,624.084 552.06,621.417 547.5,620.5C 544.163,615.955 540.496,611.788 536.5,608C 534.104,606.065 531.604,604.231 529,602.5C 528.21,598.872 526.043,596.872 522.5,596.5C 520.796,593.601 518.796,590.768 516.5,588C 514.058,587.06 511.725,585.894 509.5,584.5C 502.918,577.271 495.918,570.605 488.5,564.5C 483.318,560.807 478.318,556.974 473.5,553C 471.061,551.39 468.394,550.556 465.5,550.5C 464.167,548.167 462.833,545.833 461.5,543.5C 456.972,542.063 452.306,541.396 447.5,541.5C 447.66,543.199 447.494,544.866 447,546.5C 442.793,550.377 439.793,555.044 438,560.5C 434.742,564.6 431.242,568.6 427.5,572.5C 425.502,576.739 422.669,580.406 419,583.5C 418.51,584.793 418.343,586.127 418.5,587.5C 417.5,587.5 416.5,587.5 415.5,587.5C 415.594,590.541 414.094,592.207 411,592.5C 409.955,595.533 408.288,598.2 406,600.5C 404.494,602.174 402.661,603.174 400.5,603.5C 400.649,604.552 400.483,605.552 400,606.5C 394.823,611.678 389.99,617.178 385.5,623C 378.976,627.07 373.31,632.07 368.5,638C 366.341,640.495 363.674,642.161 360.5,643C 358.096,646 355.43,648.667 352.5,651C 348.541,650.651 345.874,652.317 344.5,656C 341.685,657.218 339.019,658.718 336.5,660.5C 329.901,662.531 323.901,665.531 318.5,669.5C 311.918,670.956 305.918,673.456 300.5,677C 298.167,677.333 295.833,677.667 293.5,678C 290.436,680.693 286.77,682.026 282.5,682C 279.52,682.767 276.854,684.1 274.5,686C 265.205,687.34 255.871,688.173 246.5,688.5C 246.5,689.5 246.5,690.5 246.5,691.5C 236.833,691.5 227.167,691.5 217.5,691.5C 217.5,690.5 217.5,689.5 217.5,688.5C 215.263,687.551 212.929,686.884 210.5,686.5C 208.721,683.714 207.388,680.714 206.5,677.5C 205.5,677.5 204.5,677.5 203.5,677.5C 203.657,676.127 203.49,674.793 203,673.5C 195.368,665.605 190.202,656.272 187.5,645.5C 180.382,625.158 174.216,604.491 169,583.5C 166.51,579.514 164.843,575.181 164,570.5C 160.885,565.325 158.885,559.658 158,553.5C 150.614,535.129 144.281,516.462 139,497.5C 138.333,496.833 137.667,496.167 137,495.5C 135.386,487.775 133.386,480.108 131,472.5C 125.936,460.305 121.269,447.972 117,435.5C 113.008,417.237 108.008,399.237 102,381.5C 95.4428,355.558 89.4428,329.558 84,303.5C 78.1292,269.532 73.2959,235.199 69.5,200.5C 68.8285,177.268 68.1618,154.101 67.5,131C 70.4285,128.689 73.7618,127.022 77.5,126C 79.1962,123.018 81.8629,121.684 85.5,122C 87.754,121.376 89.4206,120.043 90.5,118C 93.5214,117.151 96.5214,116.317 99.5,115.5C 99.5,114.5 99.5,113.5 99.5,112.5C 102.187,112.664 104.854,112.497 107.5,112C 112.967,109.05 118.634,106.55 124.5,104.5C 142.613,101.542 160.947,100.709 179.5,102C 187.036,104.359 193.036,108.859 197.5,115.5C 198.85,116.95 200.516,117.617 202.5,117.5C 201.756,120.95 203.09,122.616 206.5,122.5C 210.353,128.376 214.686,134.043 219.5,139.5C 220.236,141.541 221.069,143.541 222,145.5C 223.11,147.037 224.61,147.703 226.5,147.5C 226.38,149.734 226.713,151.901 227.5,154C 230.833,156.495 233.333,159.662 235,163.5C 236.387,168.675 238.72,173.342 242,177.5C 242.452,182.865 244.452,187.531 248,191.5C 248.333,194.5 248.667,197.5 249,200.5C 253.872,210.657 256.872,221.323 258,232.5C 266.247,257.487 273.247,282.82 279,308.5C 286.282,347.474 294.282,386.474 303,425.5C 303.626,427.991 304.459,427.991 305.5,425.5C 308.632,415.407 313.132,406.074 319,397.5C 318.681,393.324 320.514,390.657 324.5,389.5C 325.868,387.363 326.868,385.03 327.5,382.5C 328.524,381.147 329.857,380.48 331.5,380.5C 334.828,373.398 339.328,367.065 345,361.5C 346.392,356.713 349.226,353.047 353.5,350.5C 354.429,349.311 354.762,347.978 354.5,346.5C 355.552,346.649 356.552,346.483 357.5,346C 361.8,340.699 366.466,335.699 371.5,331C 372.448,330.517 373.448,330.351 374.5,330.5C 374.297,328.61 374.963,327.11 376.5,326C 381.307,323.724 385.641,320.724 389.5,317C 393.136,316.85 395.803,315.184 397.5,312C 404.314,308.447 411.647,306.28 419.5,305.5C 419.5,304.5 419.5,303.5 419.5,302.5C 428.665,301.123 437.998,300.457 447.5,300.5C 455.681,300.367 463.681,301.034 471.5,302.5C 471.281,303.675 471.614,304.675 472.5,305.5C 480.791,310.546 488.791,316.046 496.5,322C 497.448,322.483 498.448,322.649 499.5,322.5C 499.5,323.5 499.5,324.5 499.5,325.5C 503.192,325.324 505.192,326.991 505.5,330.5C 509.529,332.041 512.863,334.541 515.5,338C 516.448,338.483 517.448,338.649 518.5,338.5C 518.67,341.676 520.337,343.676 523.5,344.5C 525.415,346.071 526.415,348.071 526.5,350.5C 529.168,351.099 531.002,352.766 532,355.5C 533.745,356.956 535.578,358.289 537.5,359.5C 538.236,361.541 539.069,363.541 540,365.5C 547.876,374.601 554.21,384.601 559,395.5C 560,396.5 561,397.5 562,398.5C 565.185,405.558 567.852,412.891 570,420.5C 568.498,394.99 568.164,369.324 569,343.5C 570.324,319.314 570.99,294.98 571,270.5C 573.98,217.41 584.98,166.41 604,117.5C 607.143,113.187 609.643,108.52 611.5,103.5C 613.737,102.551 616.071,101.884 618.5,101.5C 618.5,100.5 618.5,99.5 618.5,98.5C 627.732,96.7302 637.065,95.7302 646.5,95.5C 646.5,94.5 646.5,93.5 646.5,92.5C 655.61,92.8531 664.61,92.1864 673.5,90.5C 673.5,89.5 673.5,88.5 673.5,87.5C 677.5,86.8333 681.5,86.1667 685.5,85.5C 685.5,84.5 685.5,83.5 685.5,82.5C 692.028,81.5005 698.028,79.5005 703.5,76.5 Z"/></g>
</svg>
